<svg xmlns="http://www.w3.org/2000/svg" width="199" height="53" viewBox="0 0 199 53"><g><g><path fill="#68b0c9" d="M12.208 39.785l1.44 1.388-4.262 4.424a5 5 0 1 1-1.301-1.532zm3.122-2.996l4.917-4.983 1.423 1.404-4.917 4.983zm8.863-8.268l5.31-4.56 1.304 1.517-5.31 4.56zm10.804-7.532l5.954-3.68 1.052 1.7-5.954 3.681zm11.898-7.484l6.399-2.839.81 1.828-6.398 2.839zm12.968-5.658l6.805-1.64.469 1.945-6.805 1.64zm14.03-4.337l6.928-1 .286 1.979-6.928 1zm16.022-2.14l6.961-.73.21 1.988-6.962.732zm13.152-.58l6.987.423-.12 1.996-6.988-.423zm15.2 1.537l6.862 1.385-.396 1.96-6.862-1.385zm13.006 2.99l6.857 1.407-.403 1.959-6.857-1.408zm12.171 2.705l6.695 2.043-.583 1.912-6.696-2.042zm13.152 5.782l6.529 2.526-.721 1.864-6.53-2.524zm12.393 6.56l6.035 3.546-1.013 1.724-6.035-3.545zm10.467 6.624l5.37 4.489-1.282 1.534-5.37-4.489zm9.294 7.82l6.7 8.087-1.157-5.032 1.95-.448 2.048 8.91.38.46-.224.222.26 1.128-1.95.449-.188-.82-10.656-1.584.294-1.978 8.824 1.311-7.703-9.3zM2 48a3 3 0 1 0 6 0 3 3 0 0 0-6 0z"/></g></g></svg>